<svg xmlns="http://www.w3.org/2000/svg" xmlns:xlink="http://www.w3.org/1999/xlink" width="500" zoomAndPan="magnify" viewBox="0 0 375 374.999991" height="500" preserveAspectRatio="xMidYMid meet" version="1.0"><defs><clipPath id="id1"><path d="M 125.046875 113 L 250.296875 113 L 250.296875 262 L 125.046875 262 Z M 125.046875 113 " clip-rule="nonzero"/></clipPath></defs><g clip-path="url(#id1)"><path fill="#000000" d="M 187.917969 113.449219 L 130.160156 113.449219 C 127.425781 113.449219 125.207031 115.660156 125.207031 118.386719 L 125.207031 256.613281 C 125.207031 259.339844 127.425781 261.550781 130.160156 261.550781 L 245.675781 261.550781 C 248.410156 261.550781 250.628906 259.339844 250.628906 256.613281 L 250.628906 187.5 C 250.628906 184.773438 248.410156 182.5625 245.675781 182.5625 C 242.945312 182.5625 240.726562 184.773438 240.726562 187.5 L 240.726562 251.675781 C 240.726562 251.675781 135.109375 251.675781 135.109375 251.675781 C 135.109375 251.675781 135.109375 123.324219 135.109375 123.324219 C 135.109375 123.324219 187.917969 123.324219 187.917969 123.324219 C 190.652344 123.324219 192.867188 121.109375 192.867188 118.386719 C 192.867188 115.660156 190.652344 113.449219 187.917969 113.449219 Z M 247.992188 148.394531 C 249.929688 146.464844 249.929688 143.339844 247.992188 141.410156 L 233.992188 127.449219 C 232.058594 125.519531 228.921875 125.519531 226.992188 127.449219 L 177.980469 176.320312 C 177.441406 176.863281 177.03125 177.523438 176.789062 178.25 L 169.785156 199.195312 C 169.195312 200.96875 169.65625 202.921875 170.980469 204.246094 C 172.308594 205.566406 174.269531 206.03125 176.046875 205.441406 L 197.050781 198.460938 C 197.78125 198.21875 198.441406 197.808594 198.988281 197.265625 Z M 219.992188 148.394531 L 226.992188 155.375 L 192.8125 189.460938 C 192.8125 189.460938 182.308594 192.949219 182.308594 192.949219 C 182.308594 192.949219 185.808594 182.480469 185.808594 182.480469 Z M 226.992188 141.410156 L 230.492188 137.921875 L 237.492188 144.902344 L 233.992188 148.394531 Z M 226.992188 141.410156 " fill-opacity="1" fill-rule="evenodd"/></g></svg>